<?xml version="1.0" encoding="utf-8"?>
<!-- Generator: Adobe Illustrator 23.1.0, SVG Export Plug-In . SVG Version: 6.00 Build 0)  -->
<svg version="1.1" id="Layer_1" xmlns="http://www.w3.org/2000/svg" xmlns:xlink="http://www.w3.org/1999/xlink" x="0px" y="0px"
	 viewBox="0 0 691.3 241.3" style="enable-background:new 0 0 691.3 241.3;" xml:space="preserve">
<style type="text/css">
	.st0{fill:#EA3091;}
	.st1{fill:#4C1D87;}
</style>
<path class="st0" d="M584.6,93.9c12.1,0,21.3-7.5,22.3-18.5l-12.6-1.6c0,4.7-4.3,8.4-9.7,8.4s-9.7-3.6-9.7-8.4l-12.6,1.6
	C563.3,86.4,572.5,93.9,584.6,93.9"/>
<path class="st1" d="M74.1,120.8c0,27.5,21.6,48.1,50.2,48.1c10.2,0,19-2.2,26.6-7.6v-18c-7.5,4.8-17.4,7.9-26.8,7.9
	c-18.1,0-31.7-12.7-31.7-30.4c0-17.8,13.5-30.4,31.7-30.4c9.4,0,19.3,3.1,26.8,7.9v-18c-7.6-5.4-16.4-7.6-26.6-7.6
	C95.8,72.7,74.1,93.3,74.1,120.8"/>
<path class="st1" d="M505,96.2c-20.5,0-37.1,16.3-37.1,36.3s16.6,36.3,37.1,36.3s37.1-16.3,37.1-36.3S525.5,96.2,505,96.2 M505,154
	c-11.9,0-21.3-9.6-21.3-21.5S493.1,111,505,111c11.9,0,21.3,9.6,21.3,21.5S516.9,154,505,154"/>
<polygon class="st1" points="601.1,97.6 570.3,142.9 570.3,97.6 554.8,97.6 554.8,167.5 570.6,167.5 601.3,122.4 601.3,167.5 
	617,167.5 617,97.6 "/>
<path class="st1" d="M221.6,130.7c3.9-2.3,7.6-7.6,7.6-13.5c0-11.3-8.6-19.6-20.3-19.6h-39.3v69.8h40.9c11.7,0,20.6-8.4,20.6-20
	C231.1,139.6,226.3,133.3,221.6,130.7 M185.3,111.4h21.1c4,0,7,2.9,7,6.7c0,3.9-3,6.7-7,6.7h-21.1V111.4z M207.5,153.7h-22.1v-15.2
	h22.1c4.6,0,7.9,3.3,7.9,7.6S212,153.7,207.5,153.7"/>
<path class="st1" d="M269.4,97.6c-13.9,0-24.3,10.4-24.3,24c0,11,7,20,17.2,22.9l-19.1,22.9h20.3l18.3-21.9h8.7v21.9h15.7V97.6
	H269.4z M271.5,111.4h19v20.5h-19c-6.3,0-10.7-4.7-10.7-10.2C260.8,116,265.2,111.4,271.5,111.4"/>
<polygon class="st1" points="408.7,97.6 393,97.6 393,167.5 408.7,167.5 408.7,139.1 439.5,139.1 439.5,167.5 455.2,167.5 
	455.2,97.6 439.5,97.6 439.5,125.4 408.7,125.4 "/>
<path class="st1" d="M321.8,163.4V148c6.1,3.2,13.7,6.1,22.2,6.1c10.4,0,17-3.1,17-8.7c0-4.9-5.8-6.8-13.1-6.8h-12v-13.7h12
	c7.5,0,11.6-2.7,11.6-6.5c0-5.5-6.6-7.2-14.2-7.2c-8.8,0-16,2.6-21.8,5.4v-15c6.1-3,14.1-5.3,24.1-5.3c15.2,0,27.6,8.1,27.6,19.3
	c0,8.1-4.8,13.2-8.6,14.8c4.9,2.3,10.5,8.1,10.5,16.5c0,13.1-12.6,22.1-31,22.1C335.6,168.9,327.9,166.6,321.8,163.4"/>
</svg>
